# xmcd CD database file
#
# Track frame offsets:
#	150
#	16647
#	29255
#	45544
#	60592
#	74173
#	87970
#	106974
#	118336
#	127976
#	141462
#	158857
#	175732
#	189105
#	211372
#
# Disc length: 2867 seconds
#
# Revision: 1
# Processed by: cddbd v1.5.2PL0 Copyright (c) Steve Scherf et al.
# Submitted via: CDex 1.70beta2
#
DISCID=ce0b310f
DTITLE=Waylon Jennings - The Very Best of Waylong Jennings
DYEAR=0
DGENRE=Country
TTITLE0=Lonesome On'ry And Mean
TTITLE1=I'm A Ramblin' Man
TTITLE2=Honky Tonk Heroes
TTITLE3=Luckenbach, Texas (Back To The Basics Of Love)
TTITLE4=Good Hearted Women
TTITLE5=Lovin' Her Was Easier (Than Anything I'll Ever Do Again)
TTITLE6=I've Always Been Crazy
TTITLE7=Rainy Day Woman
TTITLE8=Theme From The Dukes Of Hazzard (Good Ol' Boys)
TTITLE9=Amanda
TTITLE10=The Conversation
TTITLE11=America
TTITLE12=Don't You Think This Outlaw Bit's Done Got Out Of Hand
TTITLE13=Dreaming My Dreams With You
TTITLE14=Data track
EXTD=YEAR: 0
EXTT0=
EXTT1=
EXTT2=
EXTT3=
EXTT4=
EXTT5=
EXTT6=
EXTT7=
EXTT8=
EXTT9=
EXTT10=
EXTT11=
EXTT12=
EXTT13=
EXTT14=
PLAYORDER=
